<svg width="1024" height="1024" viewBox="0 0 1024 1024" xmlns="http://www.w3.org/2000/svg">
  <defs>
    <linearGradient id="flame" x1="0" y1="0" x2="0" y2="1">
      <stop offset="0" stop-color="#FFB020"/>
      <stop offset="1" stop-color="#F5371F"/>
    </linearGradient>
    <linearGradient id="core" x1="0" y1="0" x2="0" y2="1">
      <stop offset="0" stop-color="#FFE479"/>
      <stop offset="1" stop-color="#FF8A1F"/>
    </linearGradient>
  </defs>
  <!-- white speech bubble body + tail -->
  <g fill="#ffffff">
    <rect x="200" y="212" width="624" height="486" rx="118"/>
    <path d="M356 656 L300 800 L470 690 Z"/>
  </g>
  <!-- flame -->
  <path fill="url(#flame)" d="M512 300
    C556 372 636 410 636 500
    A124 124 0 0 1 388 500
    C388 452 424 416 424 416
    C430 470 456 492 476 504
    C440 430 484 356 512 300 Z"/>
  <!-- flame inner core -->
  <path fill="url(#core)" d="M512 420
    C536 456 576 480 576 526
    A64 64 0 0 1 448 526
    C448 500 466 482 466 482
    C470 508 486 520 500 528
    C478 484 494 452 512 420 Z"/>
</svg>
